<svg xmlns="http://www.w3.org/2000/svg" enable-background="new 0 0 24 24" viewBox="0 0 24 24" id="cloud"><g><path fill="#d3d3d3" d="M18.5,11c-0.18,0-0.36,0.01-0.53,0.03c-0.1-1.34-0.6899-2.53-1.58-3.42C15.4,6.62,14.02,6,12.5,6
			S9.6,6.62,8.61,7.61c-0.68,0.68-1.18,1.54-1.43,2.51c-0.2,0.15-0.39,0.31-0.57,0.49C5.62,11.6,5,12.98,5,14.5
			c0,3.04,2.46,5.5,5.5,5.5h8c1.24,0,2.37-0.5,3.18-1.32C22.5,17.87,23,16.74,23,15.5s-0.5-2.37-1.32-3.18
			C20.87,11.5,19.74,11,18.5,11z"></path><path fill="#262656" d="M4.219 18.3669l-.926.926c-.3906.3906-.3906 1.0234 0 1.4141C3.4883 20.9023 3.7441 21 4 21s.5117-.0977.707-.293l1.75-1.75 9.8398-9.8398L18.707 6.707c.3906-.3906.3906-1.0234 0-1.4141s-1.0234-.3906-1.4141 0L15.8119 6.774c-.2154-.3065-.4465-.6025-.7147-.8707C13.8701 4.6758 12.2373 4 10.5 4S7.1299 4.6758 5.9028 5.9033C5.1689 6.6377 4.6221 7.541 4.3081 8.5342 4.1685 8.6504 4.0332 8.7725 3.9028 8.9033 2.6758 10.1299 2 11.7617 2 13.5 2 15.391 2.8334 17.1567 4.219 18.3669zM5.3179 10.3164c.1455-.1455.2988-.2744.4604-.3945.1826-.1367.3135-.3311.3701-.5518.2007-.7793.605-1.4893 1.1685-2.0527C8.1665 6.4678 9.2969 6 10.5 6s2.3335.4678 3.1831 1.3174c.2695.2695.501.5684.6929.8926l-8.748 8.748C4.6094 16.123 4 14.8545 4 13.5 4 12.2969 4.4678 11.166 5.3179 10.3164zM16.5 18H9c-.5522 0-1 .4473-1 1s.4478 1 1 1h7.5c1.4795 0 2.8618-.5742 3.8828-1.6084C21.4258 17.3613 22 15.9795 22 14.5s-.5742-2.8613-1.606-3.8799c-.623-.6357-1.4141-1.1143-2.2886-1.3848-.5259-.1631-1.0869.1318-1.2505.6592-.1636.5283.1318 1.0879.6592 1.251.5581.1729 1.0605.4756 1.4634.8867C19.6367 12.6826 20 13.5596 20 14.5s-.3633 1.8174-1.0313 2.4766C18.3174 17.6367 17.4404 18 16.5 18z"></path></g></svg>