<svg xmlns="http://www.w3.org/2000/svg" enable-background="new 0 0 32 32" viewBox="0 0 32 32" id="activity"><path fill="#0bf" d="M16,11c-3.9,0-7,3.2-7,7s3.1,7,7,7s7-3.2,7-7S19.8,11,16,11"></path><line x1="19" x2="19" y1="15" y2="22" fill="none" stroke="#000" stroke-linecap="round" stroke-linejoin="round" stroke-miterlimit="10" stroke-width="2"></line><polyline fill="none" stroke="#000" stroke-linecap="round" stroke-linejoin="round" stroke-miterlimit="10" stroke-width="2" points="16 20 19 23 22 20"></polyline><line x1="13" x2="13" y1="21" y2="14" fill="none" stroke="#000" stroke-linecap="round" stroke-linejoin="round" stroke-miterlimit="10" stroke-width="2"></line><polyline fill="none" stroke="#000" stroke-linecap="round" stroke-linejoin="round" stroke-miterlimit="10" stroke-width="2" points="16 16 13 13 10 16"></polyline><path fill="none" stroke="#020202" stroke-linecap="round" stroke-linejoin="round" stroke-miterlimit="10" stroke-width="2" d="M8,27h17c3.3,0,6-2.7,6-6s-2.7-6-6-6c0-5-4-9-9-9c-4.3,0-7.9,3-8.8,7.1C3.7,13.4,1,16.4,1,20
	C1,23.9,4.1,27,8,27z"></path></svg>